<?xml version="1.0" encoding="utf-8"?>
<!-- Generator: Adobe Illustrator 22.1.0, SVG Export Plug-In . SVG Version: 6.00 Build 0)  -->
<svg version="1.1" xmlns="http://www.w3.org/2000/svg" xmlns:xlink="http://www.w3.org/1999/xlink" x="0px" y="0px"
	 viewBox="0 0 270 380" style="enable-background:new 0 0 270 380;" xml:space="preserve">
<style type="text/css">
	.st0{fill:#F0ECEC;}
	.st1{font-family:'Futura-Bold';}
	.st2{font-size:18px;}
	.st3{fill:none;stroke:#000000;stroke-miterlimit:10;}
	.st4{display:none;}
	.st5{display:inline;}
	.st6{fill:#E6E6E6;stroke:#636663;stroke-width:0.25;}
</style>
<g id="svg8" inkscape:version="0.92.2 5c3e80d, 2017-08-06" sodipodi:docname="MyModule.svg" xmlns:cc="http://creativecommons.org/ns#" xmlns:dc="http://purl.org/dc/elements/1.1/" xmlns:inkscape="http://www.inkscape.org/namespaces/inkscape" xmlns:rdf="http://www.w3.org/1999/02/22-rdf-syntax-ns#" xmlns:sodipodi="http://sodipodi.sourceforge.net/DTD/sodipodi-0.dtd" xmlns:svg="http://www.w3.org/2000/svg">
	<rect class="st0" width="270" height="380"/>
	<text transform="matrix(1 0 0 1 9.3332 27.6665)" class="st1 st2">COSMOS</text>
	
		<ellipse transform="matrix(0.9553 -0.2956 0.2956 0.9553 -47.8466 48.7746)" class="st3" cx="137.4" cy="182.6" rx="73.3" ry="42.5"/>
	<ellipse transform="matrix(0.3761 -0.9266 0.9266 0.3761 -85.0087 239.0378)" class="st3" cx="135" cy="182.6" rx="19" ry="37.7"/>
	<circle cx="136.4" cy="182.6" r="7.8"/>
	
		<ellipse transform="matrix(0.9354 -0.3537 0.3537 0.9354 -55.7107 59.8464)" class="st3" cx="135.9" cy="182.3" rx="86.1" ry="107.6"/>
</g>
<g id="ins" class="st4">
	<g id="layer1_1_" transform="translate(-88.611154,-119.19859)" inkscape:groupmode="layer" inkscape:label="Layer 1" class="st5">
		<path id="path7255_1_" inkscape:connector-curvature="0" class="st6" d="M188.7,304.3c-6.3,0-11.5-5.2-11.5-11.5
			c0-6.3,5.2-11.5,11.5-11.5c6.3,0,11.5,5.2,11.5,11.5C200.2,299.1,195.1,304.3,188.7,304.3"/>
		<path id="path7261_1_" inkscape:connector-curvature="0" class="st6" d="M188.7,301.1c-4.6,0-8.3-3.7-8.3-8.3
			c0-4.6,3.7-8.3,8.3-8.3c4.6,0,8.3,3.7,8.3,8.3C197,297.3,193.3,301.1,188.7,301.1"/>
		<path id="path7265_1_" inkscape:connector-curvature="0" d="M193.8,292.8c0,2.8-2.3,5.1-5.1,5.1c-2.8,0-5.1-2.3-5.1-5.1
			c0-2.8,2.3-5.1,5.1-5.1C191.5,287.7,193.8,290,193.8,292.8"/>
	</g>
	<g id="layer1_2_" transform="translate(-88.611154,-119.19859)" inkscape:groupmode="layer" inkscape:label="Layer 1" class="st5">
		<path id="path7255_2_" inkscape:connector-curvature="0" class="st6" d="M257.5,414.9c-6.3,0-11.5-5.2-11.5-11.5
			c0-6.3,5.2-11.5,11.5-11.5c6.3,0,11.5,5.2,11.5,11.5C268.9,409.8,263.8,414.9,257.5,414.9"/>
		<path id="path7261_2_" inkscape:connector-curvature="0" class="st6" d="M257.5,411.7c-4.6,0-8.3-3.7-8.3-8.3
			c0-4.6,3.7-8.3,8.3-8.3s8.3,3.7,8.3,8.3C265.7,408,262,411.7,257.5,411.7"/>
		<path id="path7265_2_" inkscape:connector-curvature="0" d="M262.6,403.5c0,2.8-2.3,5.1-5.1,5.1c-2.8,0-5.1-2.3-5.1-5.1
			c0-2.8,2.3-5.1,5.1-5.1C260.3,398.4,262.6,400.6,262.6,403.5"/>
	</g>
	<g id="layer1" transform="translate(-88.611154,-119.19859)" inkscape:groupmode="layer" inkscape:label="Layer 1" class="st5">
		<path id="path7255" inkscape:connector-curvature="0" class="st6" d="M286.6,279.5c-6.3,0-11.5-5.2-11.5-11.5
			c0-6.3,5.2-11.5,11.5-11.5c6.3,0,11.5,5.2,11.5,11.5C298.1,274.4,292.9,279.5,286.6,279.5"/>
		<path id="path7261" inkscape:connector-curvature="0" class="st6" d="M286.6,276.3c-4.6,0-8.3-3.7-8.3-8.3c0-4.6,3.7-8.3,8.3-8.3
			c4.6,0,8.3,3.7,8.3,8.3C294.9,272.6,291.2,276.3,286.6,276.3"/>
		<path id="path7265" inkscape:connector-curvature="0" d="M291.7,268c0,2.8-2.3,5.1-5.1,5.1s-5.1-2.3-5.1-5.1
			c0-2.8,2.3-5.1,5.1-5.1S291.7,265.2,291.7,268"/>
	</g>
</g>
</svg>
